<svg width="27" height="30" viewBox="0 0 18 20" fill="none" xmlns="http://www.w3.org/2000/svg">
<path d="M14.5399 19.1999C13.4559 20.2519 12.2599 20.0879 11.1199 19.5919C9.90789 19.0859 8.79989 19.0539 7.51989 19.5919C5.92589 20.2799 5.07989 20.0799 4.11989 19.1999C-1.30011 13.62 -0.500107 5.11999 5.65989 4.79999C7.15389 4.87999 8.19989 5.62599 9.07989 5.68799C10.3879 5.42199 11.6399 4.65999 13.0399 4.75999C14.7219 4.89599 15.9799 5.55999 16.8199 6.75398C13.3599 8.83398 14.1799 13.394 17.3579 14.674C16.7219 16.344 15.9059 17.9939 14.5379 19.2139L14.5399 19.1999ZM8.95989 4.73999C8.79789 2.26 10.8079 0.220004 13.1199 0.0200043C13.4379 2.88 10.5199 5.01999 8.95989 4.73999Z" fill="#101623"/>
</svg>
