<svg width="21" height="20" viewBox="0 0 21 20" fill="none" xmlns="http://www.w3.org/2000/svg">
<g clip-path="url(#clip0_1_1618)">
<path d="M10.5 20C16.0228 20 20.5 15.5228 20.5 10C20.5 4.47715 16.0228 0 10.5 0C4.97715 0 0.5 4.47715 0.5 10C0.5 15.5228 4.97715 20 10.5 20Z" fill="#3577E5"/>
<path d="M11.4333 15.9333V10.5333H13.2333L13.5 8.39998H11.4333V7.06665C11.4333 6.46665 11.6333 6.06665 12.5 6.06665H13.6333V4.13332C13.4333 4.13332 12.7667 4.06665 12.0333 4.06665C10.4333 4.06665 9.3 5.06665 9.3 6.86665V8.39998H7.5V10.5333H9.3V15.9333H11.4333Z" fill="white"/>
</g>
<defs>
<clipPath id="clip0_1_1618">
<rect width="20" height="20" fill="white" transform="translate(0.5)"/>
</clipPath>
</defs>
</svg>
